<svg width="16" height="16" viewBox="0 0 16 16" fill="none" xmlns="http://www.w3.org/2000/svg">
<g clip-path="url(#clip0_2002_603)">
<rect width="16" height="16" rx="8" fill="#E2E6EE"/>
<path d="M8.00001 11.75C7.47373 11.3011 6.98592 10.809 6.54168 10.2787C5.87501 9.48249 5.08334 8.29666 5.08334 7.16666C5.08275 5.98647 5.79345 4.92224 6.88379 4.47057C7.97413 4.01891 9.22921 4.26884 10.0633 5.10374C10.6119 5.64983 10.9191 6.39265 10.9167 7.16666C10.9167 8.29666 10.125 9.48249 9.45834 10.2787C9.0141 10.809 8.52629 11.3011 8.00001 11.75ZM8.00001 5.91666C7.55343 5.91666 7.14077 6.15491 6.91748 6.54166C6.69419 6.92841 6.69419 7.40491 6.91748 7.79166C7.14077 8.17841 7.55343 8.41666 8.00001 8.41666C8.69037 8.41666 9.25001 7.85701 9.25001 7.16666C9.25001 6.4763 8.69037 5.91666 8.00001 5.91666Z" fill="#79819A"/>
</g>
<defs>
<clipPath id="clip0_2002_603">
<rect width="16" height="16" rx="8" fill="white"/>
</clipPath>
</defs>
</svg>
