<svg width="6" height="6" viewBox="0 0 6 6" fill="none" xmlns="http://www.w3.org/2000/svg">
<path d="M4.8219 2.84222C5.4755 2.84222 5.91668 3.29718 5.91668 3.9712C5.91668 4.57782 5.41014 5.08334 4.72387 5.08334C3.97223 5.08334 3.41668 4.47672 3.41668 3.54994C3.41668 1.44363 4.95262 0.601104 5.91668 0.5L5.91668 1.42678C5.26308 1.54473 4.52779 2.2019 4.49511 2.92647C4.52779 2.90962 4.65851 2.84222 4.8219 2.84222Z" fill="#79819A"/>
<path d="M1.48857 2.84222C2.14217 2.84222 2.58334 3.29718 2.58334 3.9712C2.58334 4.57782 2.07681 5.08334 1.39053 5.08334C0.638899 5.08334 0.0833434 4.47672 0.0833435 3.54994C0.0833433 1.44363 1.61929 0.601104 2.58334 0.5V1.42678C1.92975 1.54473 1.19445 2.2019 1.16177 2.92647C1.19445 2.90962 1.32517 2.84222 1.48857 2.84222Z" fill="#79819A"/>
</svg>
