<svg width="12" height="12" viewBox="0 0 12 12" fill="none" xmlns="http://www.w3.org/2000/svg">
<g clip-path="url(#clip0_2002_280)">
<rect width="12" height="12" fill="#EFE2F9"/>
<path d="M5.19371 2.72897C3.96413 2.96895 2.97328 3.95731 2.73083 5.18318C2.27314 7.49636 4.35997 9.22074 5.93221 8.97705C6.44186 8.89788 6.69173 8.30165 6.45794 7.84272C6.17219 7.28113 6.5804 6.62552 7.21128 6.62552H8.19717C8.64002 6.62552 8.99875 6.25936 8.99999 5.81776C8.9938 3.86825 7.21993 2.33437 5.19371 2.72897ZM3.85403 6.62552C3.63508 6.62552 3.45819 6.44863 3.45819 6.22968C3.45819 6.01073 3.63508 5.83384 3.85403 5.83384C4.07298 5.83384 4.24988 6.01073 4.24988 6.22968C4.24988 6.44863 4.07298 6.62552 3.85403 6.62552ZM4.24988 5.04216C4.03093 5.04216 3.85403 4.86527 3.85403 4.64632C3.85403 4.42737 4.03093 4.25048 4.24988 4.25048C4.46883 4.25048 4.64572 4.42737 4.64572 4.64632C4.64572 4.86527 4.46883 5.04216 4.24988 5.04216ZM5.83325 4.25048C5.6143 4.25048 5.4374 4.07359 5.4374 3.85464C5.4374 3.63569 5.6143 3.4588 5.83325 3.4588C6.0522 3.4588 6.22909 3.63569 6.22909 3.85464C6.22909 4.07359 6.0522 4.25048 5.83325 4.25048ZM7.41662 5.04216C7.19767 5.04216 7.02078 4.86527 7.02078 4.64632C7.02078 4.42737 7.19767 4.25048 7.41662 4.25048C7.63557 4.25048 7.81246 4.42737 7.81246 4.64632C7.81246 4.86527 7.63557 5.04216 7.41662 5.04216Z" fill="#9251F7"/>
</g>
<defs>
<clipPath id="clip0_2002_280">
<rect width="12" height="12" rx="6" fill="white"/>
</clipPath>
</defs>
</svg>
