<svg width="16" height="17" viewBox="0 0 16 17" fill="none" xmlns="http://www.w3.org/2000/svg">
<rect y="0.5" width="16" height="16" rx="8" fill="#EA4C89"/>
<path d="M8.00001 12.6667C5.69882 12.6667 3.83334 10.8012 3.83334 8.50001C3.83334 6.19882 5.69882 4.33334 8.00001 4.33334C10.3012 4.33334 12.1667 6.19882 12.1667 8.50001C12.1642 10.8001 10.3001 12.6642 8.00001 12.6667ZM5.96668 11.2271L5.96459 11.2313C6.91586 11.9439 8.17055 12.1072 9.27251 11.6617C9.11456 10.8122 8.88042 9.97871 8.57293 9.17126C7.86665 9.41751 7.22093 9.81139 6.67876 10.3267C6.41156 10.5797 6.18025 10.868 5.99126 11.1838L5.98834 11.1883V11.1842L5.98084 11.1988L5.97584 11.2071L5.97293 11.2125L5.96584 11.2275L5.96668 11.2271ZM9.99126 8.93543C9.78612 8.93572 9.58122 8.94964 9.37793 8.97709C9.64342 9.71898 9.85236 10.4799 10.0029 11.2533C10.711 10.7429 11.1923 9.9766 11.3446 9.11709C10.9038 8.99547 10.4485 8.93394 9.99126 8.93418V8.93543ZM4.59043 8.48126V8.50459C4.59119 9.30734 4.87523 10.0841 5.39251 10.6979C6.06263 9.66272 7.05387 8.87596 8.21418 8.45834L8.26376 8.44418C8.19001 8.28126 8.12084 8.13584 8.05168 8.00001C6.93998 8.31172 5.79164 8.47356 4.63709 8.48126H4.59043ZM9.86084 8.22876C10.3779 8.23067 10.8937 8.27779 11.4025 8.36959C11.376 7.66477 11.1295 6.98593 10.6975 6.42834C10.1934 6.99207 9.56604 7.43182 8.86418 7.71334L8.87626 7.70834L8.86334 7.71376C8.93793 7.86918 9.00334 8.01459 9.05793 8.14418C9.07084 8.17501 9.08168 8.20168 9.09168 8.22751L9.10876 8.26918C9.35849 8.24147 9.60959 8.22797 9.86084 8.22876ZM6.49043 5.44876C5.58431 5.896 4.92342 6.72233 4.68626 7.70459C5.65725 7.68959 6.62358 7.5669 7.56751 7.33876H7.57293H7.57918L7.58334 7.33334L7.60584 7.32793H7.60834L7.62501 7.32459H7.62876H7.63168L7.64043 7.32209L7.65709 7.31793L7.66668 7.31376L7.67584 7.31126H7.68001H7.68418C7.12876 6.33334 6.55376 5.53626 6.49001 5.44876H6.49043ZM8.00001 5.09958C7.77192 5.09902 7.54432 5.12065 7.32043 5.16418C7.75693 5.769 8.15748 6.39898 8.52001 7.05084C9.16923 6.81961 9.74825 6.42566 10.2017 5.90668C9.58613 5.38609 8.80618 5.10018 8.00001 5.09958Z" fill="white"/>
</svg>
