<svg width="6" height="5" viewBox="0 0 6 5" fill="none" xmlns="http://www.w3.org/2000/svg">
<path d="M1.09477 2.65779C0.441176 2.65779 0 2.20282 0 1.5288C0 0.922187 0.506536 0.416672 1.19281 0.416672C1.94444 0.416672 2.5 1.02329 2.5 1.95007C2.5 4.05638 0.964052 4.8989 0 5.00001V4.07323C0.653595 3.95528 1.38889 3.29811 1.42157 2.57353C1.38889 2.59039 1.25817 2.65779 1.09477 2.65779Z" fill="#79819A"/>
<path d="M4.4281 2.65779C3.77451 2.65779 3.33333 2.20282 3.33333 1.5288C3.33333 0.922187 3.83987 0.416672 4.52614 0.416672C5.27778 0.416672 5.83333 1.02329 5.83333 1.95007C5.83333 4.05638 4.29738 4.8989 3.33333 5.00001V4.07323C3.98693 3.95528 4.72222 3.29811 4.7549 2.57353C4.72222 2.59039 4.5915 2.65779 4.4281 2.65779Z" fill="#79819A"/>
</svg>
