<svg width="12" height="12" viewBox="0 0 12 12" fill="none" xmlns="http://www.w3.org/2000/svg">
<g clip-path="url(#clip0_2002_443)">
<rect width="12" height="12" fill="#E1E7FE"/>
<g clip-path="url(#clip1_2002_443)">
<path d="M5.04532 9.12503C4.52504 9.12905 4.05898 8.80393 3.88314 8.31424C3.7073 7.82455 3.86006 7.27721 4.26407 6.94937C3.97751 6.71744 3.81102 6.36849 3.81102 5.99983C3.81102 5.63118 3.97751 5.28223 4.26407 5.0503C3.85993 4.72256 3.70708 4.17519 3.88295 3.68548C4.05883 3.19577 4.52501 2.87072 5.04532 2.87495H6.9547C7.47502 2.87072 7.9412 3.19577 8.11707 3.68548C8.29295 4.17519 8.1401 4.72256 7.73595 5.0503C8.13997 5.37815 8.29273 5.92549 8.11689 6.41518C7.94104 6.90486 7.47499 7.22999 6.9547 7.22593C6.71438 7.22622 6.47922 7.15627 6.27814 7.02468V7.89968C6.27521 8.57811 5.72376 9.1262 5.04532 9.12503ZM5.03845 7.22624C4.6683 7.23209 4.37242 7.53585 4.3763 7.90602C4.38018 8.2762 4.68237 8.57369 5.05256 8.57178C5.42275 8.56985 5.72184 8.26924 5.72189 7.89905V7.22624H5.03814H5.03845ZM6.95501 5.32718C6.58388 5.32907 6.28438 5.63114 6.28564 6.00227C6.2869 6.3734 6.58845 6.67342 6.95959 6.67279C7.33072 6.67216 7.63126 6.37113 7.63126 5.99999C7.62988 5.62751 7.32718 5.32649 6.9547 5.32718H6.95501ZM5.04564 5.32717C4.80526 5.32589 4.58247 5.45295 4.46117 5.66047C4.33987 5.868 4.3385 6.12447 4.45757 6.33328C4.57665 6.5421 4.79808 6.67152 5.03845 6.6728H5.72189V5.32717H5.04564ZM6.27814 3.42812V4.77406H6.95439C7.31611 4.77574 7.61455 4.49137 7.63032 4.12999V4.26593V4.10093C7.62878 3.72889 7.32674 3.42812 6.9547 3.42812H6.27814ZM5.04501 3.42812C4.80464 3.42812 4.58253 3.55635 4.46234 3.76452C4.34215 3.97269 4.34215 4.22917 4.46234 4.43733C4.58253 4.6455 4.80464 4.77374 5.04501 4.77374H5.72189V3.42812H5.04501Z" fill="#516CF7"/>
</g>
</g>
<defs>
<clipPath id="clip0_2002_443">
<rect width="12" height="12" rx="6" fill="white"/>
</clipPath>
<clipPath id="clip1_2002_443">
<rect width="7.5" height="7.5" fill="white" transform="translate(2.25 2.25)"/>
</clipPath>
</defs>
</svg>
