<svg width="12" height="12" viewBox="0 0 12 12" fill="none" xmlns="http://www.w3.org/2000/svg">
<g clip-path="url(#clip0_2002_456)">
<rect width="12" height="12" fill="#E1E7FE"/>
<path d="M4.89531 8.6672C4.26339 8.6672 3.69368 8.28654 3.45181 7.70274C3.20994 7.11893 3.34354 6.44691 3.79031 6.00001L4.45344 5.33688L4.89531 5.77876L4.2325 6.44157C3.99564 6.67843 3.90314 7.02365 3.98984 7.3472C4.07653 7.67075 4.32925 7.92348 4.6528 8.01017C4.97636 8.09687 5.32158 8.00436 5.55844 7.76751L6.22125 7.10469L6.66312 7.54688L6.00031 8.20969C5.70783 8.50361 5.30995 8.66834 4.89531 8.6672ZM5.11625 7.32563L4.67437 6.88376L6.88406 4.67407L7.32594 5.11594L5.11656 7.32532L5.11625 7.32563ZM7.54719 6.66282L7.105 6.22094L7.76781 5.55813C8.00789 5.32198 8.10287 4.97521 8.01664 4.64969C7.9304 4.32416 7.67619 4.0699 7.35069 3.98358C7.02518 3.89727 6.67839 3.99217 6.44219 4.23219L5.77906 4.89501L5.33719 4.45313L6.00031 3.79001C6.61127 3.18437 7.59687 3.18653 8.20517 3.79483C8.81348 4.40314 8.81563 5.38873 8.21 5.99969L7.54719 6.66251V6.66282Z" fill="#516CF7"/>
</g>
<defs>
<clipPath id="clip0_2002_456">
<rect width="12" height="12" rx="6" fill="white"/>
</clipPath>
</defs>
</svg>
